<svg width="40" height="41" viewBox="0 0 40 41" fill="none" xmlns="http://www.w3.org/2000/svg">
<path fill-rule="evenodd" clip-rule="evenodd" d="M29 30.5H14C12.3431 30.5 11 29.1569 11 27.5V13.5C11 11.8431 12.3431 10.5 14 10.5H29V26.5C28.4477 26.5 28 26.9477 28 27.5C28 28.0523 28.4477 28.5 29 28.5V30.5ZM26 27.5C26 27.1494 26.0602 26.8128 26.1707 26.5H14C13.4477 26.5 13 26.9477 13 27.5C13 28.0523 13.4477 28.5 14 28.5H26.1707C26.0602 28.1872 26 27.8506 26 27.5ZM14 12.5H27V24.5H14C13.6494 24.5 13.3128 24.5602 13 24.6707V13.5C13 12.9477 13.4477 12.5 14 12.5Z" fill="#01488B"/>
<path d="M29 30.5V30.75H29.25V30.5H29ZM29 10.5H29.25V10.25H29V10.5ZM29 26.5V26.75H29.25V26.5H29ZM29 28.5H29.25V28.25H29V28.5ZM26.1707 26.5L26.4064 26.5833L26.5242 26.25H26.1707V26.5ZM26.1707 28.5V28.75H26.5242L26.4064 28.4167L26.1707 28.5ZM27 12.5H27.25V12.25H27V12.5ZM27 24.5V24.75H27.25V24.5H27ZM13 24.6707H12.75V25.0242L13.0833 24.9064L13 24.6707ZM14 30.75H29V30.25H14V30.75ZM10.75 27.5C10.75 29.2949 12.2051 30.75 14 30.75V30.25C12.4812 30.25 11.25 29.0188 11.25 27.5H10.75ZM10.75 13.5V27.5H11.25V13.5H10.75ZM14 10.25C12.2051 10.25 10.75 11.7051 10.75 13.5H11.25C11.25 11.9812 12.4812 10.75 14 10.75V10.25ZM29 10.25H14V10.75H29V10.25ZM29.25 26.5V10.5H28.75V26.5H29.25ZM28.25 27.5C28.25 27.0858 28.5858 26.75 29 26.75V26.25C28.3096 26.25 27.75 26.8096 27.75 27.5H28.25ZM29 28.25C28.5858 28.25 28.25 27.9142 28.25 27.5H27.75C27.75 28.1904 28.3096 28.75 29 28.75V28.25ZM29.25 30.5V28.5H28.75V30.5H29.25ZM25.935 26.4167C25.8151 26.7559 25.75 27.1206 25.75 27.5H26.25C26.25 27.1781 26.3052 26.8697 26.4064 26.5833L25.935 26.4167ZM14 26.75H26.1707V26.25H14V26.75ZM13.25 27.5C13.25 27.0858 13.5858 26.75 14 26.75V26.25C13.3096 26.25 12.75 26.8096 12.75 27.5H13.25ZM14 28.25C13.5858 28.25 13.25 27.9142 13.25 27.5H12.75C12.75 28.1904 13.3096 28.75 14 28.75V28.25ZM26.1707 28.25H14V28.75H26.1707V28.25ZM25.75 27.5C25.75 27.8794 25.8151 28.2441 25.935 28.5833L26.4064 28.4167C26.3052 28.1303 26.25 27.8219 26.25 27.5H25.75ZM27 12.25H14V12.75H27V12.25ZM27.25 24.5V12.5H26.75V24.5H27.25ZM14 24.75H27V24.25H14V24.75ZM13.0833 24.9064C13.3697 24.8052 13.6781 24.75 14 24.75V24.25C13.6206 24.25 13.2559 24.3151 12.9167 24.435L13.0833 24.9064ZM12.75 13.5V24.6707H13.25V13.5H12.75ZM14 12.25C13.3096 12.25 12.75 12.8096 12.75 13.5H13.25C13.25 13.0858 13.5858 12.75 14 12.75V12.25Z" fill="white"/>
</svg>
