<svg width="40" height="41" viewBox="0 0 40 41" fill="none" xmlns="http://www.w3.org/2000/svg">
<path fill-rule="evenodd" clip-rule="evenodd" d="M31 20.5C31 14.4249 26.0751 9.5 20 9.5C13.9249 9.5 9 14.4249 9 20.5C9 26.5751 13.9249 31.5 20 31.5C26.0751 31.5 31 26.5751 31 20.5ZM11.6423 17.1545C12.5557 14.8748 14.3748 13.0557 16.6545 12.1423C16.1196 13.1749 15.7001 14.4622 15.4173 15.9173C13.9622 16.2001 12.6749 16.6196 11.6423 17.1545ZM23.3455 12.1423C23.8804 13.1749 24.2999 14.4622 24.5827 15.9173C26.0378 16.2001 27.3251 16.6196 28.3577 17.1545C27.4443 14.8748 25.6252 13.0557 23.3455 12.1423ZM11 20.5C11 19.6008 12.6287 18.625 15.1145 18.0382C15.039 18.8308 15 19.655 15 20.5C15 21.345 15.039 22.1692 15.1145 22.9618C12.6287 22.375 11 21.3992 11 20.5ZM25 20.5C25 21.345 24.961 22.1692 24.8855 22.9618C27.3713 22.375 29 21.3992 29 20.5C29 19.6008 27.3713 18.625 24.8855 18.0382C24.961 18.8308 25 19.655 25 20.5ZM11.6423 23.8455C12.6749 24.3804 13.9622 24.7999 15.4173 25.0827C15.7001 26.5378 16.1196 27.8251 16.6545 28.8577C14.3748 27.9443 12.5557 26.1252 11.6423 23.8455ZM24.5827 25.0827C24.2999 26.5378 23.8804 27.8251 23.3455 28.8577C25.6252 27.9443 27.4443 26.1252 28.3577 23.8455C27.3251 24.3804 26.0378 24.7999 24.5827 25.0827ZM17 20.5C17 19.5097 17.0621 18.5597 17.1726 17.6726C18.0597 17.5621 19.0097 17.5 20 17.5C20.9903 17.5 21.9403 17.5621 22.8274 17.6726C22.9379 18.5597 23 19.5097 23 20.5C23 21.4903 22.9379 22.4403 22.8274 23.3274C21.9403 23.4379 20.9903 23.5 20 23.5C19.0097 23.5 18.0597 23.4379 17.1726 23.3274C17.0621 22.4403 17 21.4903 17 20.5ZM17.5382 25.3855C18.125 27.8713 19.1008 29.5 20 29.5C20.8992 29.5 21.875 27.8713 22.4618 25.3855C21.6692 25.461 20.845 25.5 20 25.5C19.155 25.5 18.3308 25.461 17.5382 25.3855ZM20 11.5C19.1008 11.5 18.125 13.1287 17.5382 15.6145C18.3308 15.539 19.155 15.5 20 15.5C20.845 15.5 21.6692 15.539 22.4618 15.6145C21.875 13.1287 20.8992 11.5 20 11.5Z" fill="#01488B"/>
<path d="M16.6545 12.1423L16.8765 12.2573L17.1859 11.6601L16.5615 11.9103L16.6545 12.1423ZM11.6423 17.1545L11.4103 17.0615L11.1601 17.6859L11.7573 17.3765L11.6423 17.1545ZM15.4173 15.9173L15.465 16.1627L15.6305 16.1305L15.6627 15.965L15.4173 15.9173ZM24.5827 15.9173L24.3373 15.965L24.3695 16.1305L24.535 16.1627L24.5827 15.9173ZM23.3455 12.1423L23.4385 11.9103L22.8141 11.6601L23.1235 12.2573L23.3455 12.1423ZM28.3577 17.1545L28.2427 17.3765L28.8399 17.6859L28.5897 17.0615L28.3577 17.1545ZM15.1145 18.0382L15.3634 18.0619L15.3964 17.7148L15.057 17.7949L15.1145 18.0382ZM15.1145 22.9618L15.057 23.2051L15.3964 23.2852L15.3634 22.9381L15.1145 22.9618ZM24.8855 22.9618L24.6366 22.9381L24.6036 23.2852L24.943 23.2051L24.8855 22.9618ZM24.8855 18.0382L24.943 17.7949L24.6036 17.7148L24.6366 18.0619L24.8855 18.0382ZM15.4173 25.0827L15.6627 25.035L15.6305 24.8695L15.465 24.8373L15.4173 25.0827ZM11.6423 23.8455L11.7573 23.6235L11.1601 23.3141L11.4103 23.9385L11.6423 23.8455ZM16.6545 28.8577L16.5615 29.0897L17.1859 29.3399L16.8765 28.7427L16.6545 28.8577ZM23.3455 28.8577L23.1235 28.7427L22.8141 29.3399L23.4385 29.0897L23.3455 28.8577ZM24.5827 25.0827L24.535 24.8373L24.3695 24.8695L24.3373 25.035L24.5827 25.0827ZM28.3577 23.8455L28.5897 23.9385L28.8399 23.3141L28.2427 23.6235L28.3577 23.8455ZM17.1726 17.6726L17.1417 17.4245L16.9486 17.4486L16.9245 17.6417L17.1726 17.6726ZM22.8274 17.6726L23.0755 17.6417L23.0514 17.4486L22.8583 17.4245L22.8274 17.6726ZM22.8274 23.3274L22.8583 23.5755L23.0514 23.5514L23.0755 23.3583L22.8274 23.3274ZM17.1726 23.3274L16.9245 23.3583L16.9486 23.5514L17.1417 23.5755L17.1726 23.3274ZM17.5382 25.3855L17.5619 25.1366L17.2148 25.1036L17.2949 25.443L17.5382 25.3855ZM22.4618 25.3855L22.7051 25.443L22.7852 25.1036L22.4381 25.1366L22.4618 25.3855ZM17.5382 15.6145L17.2949 15.557L17.2148 15.8964L17.5619 15.8634L17.5382 15.6145ZM22.4618 15.6145L22.4381 15.8634L22.7852 15.8964L22.7051 15.557L22.4618 15.6145ZM20 9.75C25.9371 9.75 30.75 14.5629 30.75 20.5H31.25C31.25 14.2868 26.2132 9.25 20 9.25V9.75ZM9.25 20.5C9.25 14.5629 14.0629 9.75 20 9.75V9.25C13.7868 9.25 8.75 14.2868 8.75 20.5H9.25ZM20 31.25C14.0629 31.25 9.25 26.4371 9.25 20.5H8.75C8.75 26.7132 13.7868 31.75 20 31.75V31.25ZM30.75 20.5C30.75 26.4371 25.9371 31.25 20 31.25V31.75C26.2132 31.75 31.25 26.7132 31.25 20.5H30.75ZM16.5615 11.9103C14.2184 12.849 12.349 14.7184 11.4103 17.0615L11.8744 17.2475C12.7624 15.0312 14.5312 13.2624 16.7475 12.3744L16.5615 11.9103ZM15.6627 15.965C15.9422 14.5268 16.3553 13.2634 16.8765 12.2573L16.4325 12.0273C15.884 13.0863 15.4579 14.3977 15.1719 15.8696L15.6627 15.965ZM11.7573 17.3765C12.7634 16.8553 14.0268 16.4422 15.465 16.1627L15.3696 15.6719C13.8977 15.9579 12.5863 16.384 11.5273 16.9325L11.7573 17.3765ZM24.8281 15.8696C24.5421 14.3977 24.116 13.0863 23.5675 12.0273L23.1235 12.2573C23.6447 13.2634 24.0578 14.5268 24.3373 15.965L24.8281 15.8696ZM28.4727 16.9325C27.4137 16.384 26.1023 15.9579 24.6304 15.6719L24.535 16.1627C25.9732 16.4422 27.2366 16.8553 28.2427 17.3765L28.4727 16.9325ZM23.2525 12.3744C25.4688 13.2624 27.2376 15.0312 28.1256 17.2475L28.5897 17.0615C27.651 14.7184 25.7816 12.849 23.4385 11.9103L23.2525 12.3744ZM15.057 17.7949C13.7989 18.0919 12.7438 18.4902 11.9967 18.9374C11.6234 19.1609 11.3174 19.4021 11.1022 19.6573C10.8872 19.9123 10.75 20.197 10.75 20.5H11.25C11.25 20.3534 11.3164 20.1789 11.4844 19.9797C11.6523 19.7807 11.9089 19.5727 12.2535 19.3664C12.9421 18.9542 13.9442 18.5713 15.1719 18.2815L15.057 17.7949ZM15.25 20.5C15.25 19.6627 15.2887 18.8464 15.3634 18.0619L14.8656 18.0145C14.7894 18.8153 14.75 19.6474 14.75 20.5H15.25ZM15.3634 22.9381C15.2887 22.1536 15.25 21.3373 15.25 20.5H14.75C14.75 21.3526 14.7894 22.1847 14.8656 22.9855L15.3634 22.9381ZM10.75 20.5C10.75 20.803 10.8872 21.0877 11.1022 21.3427C11.3174 21.5979 11.6234 21.8391 11.9967 22.0626C12.7438 22.5098 13.7989 22.9081 15.057 23.2051L15.1719 22.7185C13.9442 22.4287 12.9421 22.0458 12.2535 21.6336C11.9089 21.4273 11.6523 21.2193 11.4844 21.0203C11.3164 20.8211 11.25 20.6466 11.25 20.5H10.75ZM25.1344 22.9855C25.2106 22.1847 25.25 21.3526 25.25 20.5H24.75C24.75 21.3373 24.7113 22.1536 24.6366 22.9381L25.1344 22.9855ZM28.75 20.5C28.75 20.6466 28.6836 20.8211 28.5156 21.0203C28.3477 21.2193 28.0911 21.4273 27.7465 21.6336C27.0579 22.0458 26.0558 22.4287 24.8281 22.7185L24.943 23.2051C26.2011 22.9081 27.2562 22.5098 28.0033 22.0626C28.3766 21.8391 28.6826 21.5979 28.8978 21.3427C29.1128 21.0877 29.25 20.803 29.25 20.5H28.75ZM24.8281 18.2815C26.0558 18.5713 27.0579 18.9542 27.7465 19.3664C28.0911 19.5727 28.3477 19.7807 28.5156 19.9797C28.6836 20.1789 28.75 20.3534 28.75 20.5H29.25C29.25 20.197 29.1128 19.9123 28.8978 19.6573C28.6826 19.4021 28.3766 19.1609 28.0033 18.9374C27.2562 18.4902 26.2011 18.0919 24.943 17.7949L24.8281 18.2815ZM25.25 20.5C25.25 19.6474 25.2106 18.8153 25.1344 18.0145L24.6366 18.0619C24.7113 18.8464 24.75 19.6627 24.75 20.5H25.25ZM15.465 24.8373C14.0268 24.5578 12.7634 24.1447 11.7573 23.6235L11.5273 24.0675C12.5863 24.616 13.8977 25.0421 15.3696 25.3281L15.465 24.8373ZM16.8765 28.7427C16.3553 27.7366 15.9422 26.4732 15.6627 25.035L15.1719 25.1304C15.4579 26.6023 15.884 27.9137 16.4325 28.9727L16.8765 28.7427ZM11.4103 23.9385C12.349 26.2816 14.2184 28.151 16.5615 29.0897L16.7475 28.6256C14.5312 27.7376 12.7624 25.9688 11.8744 23.7525L11.4103 23.9385ZM23.5675 28.9727C24.116 27.9137 24.5421 26.6023 24.8281 25.1304L24.3373 25.035C24.0578 26.4732 23.6447 27.7366 23.1235 28.7427L23.5675 28.9727ZM28.1256 23.7525C27.2376 25.9688 25.4688 27.7376 23.2525 28.6256L23.4385 29.0897C25.7816 28.151 27.651 26.2816 28.5897 23.9385L28.1256 23.7525ZM24.6304 25.3281C26.1023 25.0421 27.4137 24.616 28.4727 24.0675L28.2427 23.6235C27.2366 24.1447 25.9732 24.5578 24.535 24.8373L24.6304 25.3281ZM16.9245 17.6417C16.8128 18.539 16.75 19.4994 16.75 20.5H17.25C17.25 19.5201 17.3115 18.5804 17.4207 17.7035L16.9245 17.6417ZM20 17.25C18.9994 17.25 18.039 17.3128 17.1417 17.4245L17.2035 17.9207C18.0804 17.8115 19.0201 17.75 20 17.75V17.25ZM22.8583 17.4245C21.961 17.3128 21.0006 17.25 20 17.25V17.75C20.9799 17.75 21.9196 17.8115 22.7965 17.9207L22.8583 17.4245ZM23.25 20.5C23.25 19.4994 23.1872 18.539 23.0755 17.6417L22.5793 17.7035C22.6885 18.5804 22.75 19.5201 22.75 20.5H23.25ZM23.0755 23.3583C23.1872 22.461 23.25 21.5006 23.25 20.5H22.75C22.75 21.4799 22.6885 22.4196 22.5793 23.2965L23.0755 23.3583ZM20 23.75C21.0006 23.75 21.961 23.6872 22.8583 23.5755L22.7965 23.0793C21.9196 23.1885 20.9799 23.25 20 23.25V23.75ZM17.1417 23.5755C18.039 23.6872 18.9994 23.75 20 23.75V23.25C19.0201 23.25 18.0804 23.1885 17.2035 23.0793L17.1417 23.5755ZM16.75 20.5C16.75 21.5006 16.8128 22.461 16.9245 23.3583L17.4207 23.2965C17.3115 22.4196 17.25 21.4799 17.25 20.5H16.75ZM17.2949 25.443C17.5919 26.7011 17.9902 27.7562 18.4374 28.5033C18.6609 28.8766 18.9021 29.1826 19.1573 29.3978C19.4123 29.6128 19.697 29.75 20 29.75V29.25C19.8534 29.25 19.6789 29.1836 19.4797 29.0156C19.2807 28.8477 19.0727 28.5911 18.8664 28.2465C18.4542 27.5579 18.0713 26.5558 17.7815 25.3281L17.2949 25.443ZM20 29.75C20.303 29.75 20.5877 29.6128 20.8427 29.3978C21.0979 29.1826 21.3391 28.8766 21.5626 28.5033C22.0098 27.7562 22.4081 26.7011 22.7051 25.443L22.2185 25.3281C21.9287 26.5558 21.5458 27.5579 21.1336 28.2465C20.9273 28.5911 20.7193 28.8477 20.5203 29.0156C20.3211 29.1836 20.1466 29.25 20 29.25V29.75ZM22.4381 25.1366C21.6536 25.2113 20.8373 25.25 20 25.25V25.75C20.8526 25.75 21.6847 25.7106 22.4855 25.6344L22.4381 25.1366ZM20 25.25C19.1627 25.25 18.3464 25.2113 17.5619 25.1366L17.5145 25.6344C18.3153 25.7106 19.1474 25.75 20 25.75V25.25ZM17.7815 15.6719C18.0713 14.4442 18.4542 13.4421 18.8664 12.7535C19.0727 12.4089 19.2807 12.1523 19.4797 11.9844C19.6789 11.8164 19.8534 11.75 20 11.75V11.25C19.697 11.25 19.4123 11.3872 19.1573 11.6022C18.9021 11.8174 18.6609 12.1234 18.4374 12.4967C17.9902 13.2438 17.5919 14.2989 17.2949 15.557L17.7815 15.6719ZM20 15.25C19.1474 15.25 18.3153 15.2894 17.5145 15.3656L17.5619 15.8634C18.3464 15.7887 19.1627 15.75 20 15.75V15.25ZM22.4855 15.3656C21.6847 15.2894 20.8526 15.25 20 15.25V15.75C20.8373 15.75 21.6536 15.7887 22.4381 15.8634L22.4855 15.3656ZM20 11.75C20.1466 11.75 20.3211 11.8164 20.5203 11.9844C20.7193 12.1523 20.9273 12.4089 21.1336 12.7535C21.5458 13.4421 21.9287 14.4442 22.2185 15.6719L22.7051 15.557C22.4081 14.2989 22.0098 13.2438 21.5626 12.4967C21.3391 12.1234 21.0979 11.8174 20.8427 11.6022C20.5877 11.3872 20.303 11.25 20 11.25V11.75Z" fill="white"/>
</svg>
