<svg width="25" height="25" viewBox="0 0 25 25" fill="none" xmlns="http://www.w3.org/2000/svg">
<path fill-rule="evenodd" clip-rule="evenodd" d="M23.0645 12.6213C23.0645 6.54621 18.1396 1.62134 12.0645 1.62134C5.98932 1.62134 1.06445 6.54621 1.06445 12.6213C1.06445 18.6965 5.98932 23.6213 12.0645 23.6213C18.1396 23.6213 23.0645 18.6965 23.0645 12.6213ZM3.70677 9.27586C4.62015 6.99613 6.43925 5.17703 8.71897 4.26366C8.1841 5.29621 7.76451 6.58357 7.48171 8.0386C6.02669 8.3214 4.73932 8.74098 3.70677 9.27586ZM15.4099 4.26366C15.9448 5.29621 16.3644 6.58358 16.6472 8.0386C18.1022 8.3214 19.3896 8.74098 20.4221 9.27586C19.5088 6.99613 17.6897 5.17703 15.4099 4.26366ZM3.06445 12.6213C3.06445 11.7221 4.69314 10.7463 7.17894 10.1595C7.1035 10.9522 7.06445 11.7763 7.06445 12.6213C7.06445 13.4663 7.1035 14.2905 7.17894 15.0831C4.69314 14.4963 3.06445 13.5206 3.06445 12.6213ZM17.0645 12.6213C17.0645 13.4663 17.0254 14.2905 16.95 15.0831C19.4358 14.4963 21.0645 13.5206 21.0645 12.6213C21.0645 11.7221 19.4358 10.7463 16.95 10.1595C17.0254 10.9522 17.0645 11.7763 17.0645 12.6213ZM3.70677 15.9668C4.73932 16.5017 6.02669 16.9213 7.48171 17.2041C7.76451 18.6591 8.1841 19.9465 8.71897 20.979C6.43925 20.0656 4.62015 18.2465 3.70677 15.9668ZM16.6472 17.2041C16.3644 18.6591 15.9448 19.9465 15.4099 20.979C17.6897 20.0656 19.5088 18.2465 20.4221 15.9668C19.3896 16.5017 18.1022 16.9213 16.6472 17.2041ZM9.06445 12.6213C9.06445 11.6311 9.12656 10.6811 9.23707 9.79396C10.1242 9.68345 11.0742 9.62134 12.0645 9.62134C13.0547 9.62134 14.0047 9.68345 14.8918 9.79396C15.0023 10.6811 15.0645 11.6311 15.0645 12.6213C15.0645 13.6116 15.0023 14.5616 14.8918 15.4487C14.0047 15.5592 13.0547 15.6213 12.0645 15.6213C11.0742 15.6213 10.1242 15.5592 9.23707 15.4487C9.12656 14.5616 9.06445 13.6116 9.06445 12.6213ZM9.60264 17.5069C10.1894 19.9927 11.1652 21.6213 12.0645 21.6213C12.9637 21.6213 13.9395 19.9927 14.5263 17.5069C13.7336 17.5823 12.9094 17.6213 12.0645 17.6213C11.2195 17.6213 10.3953 17.5823 9.60264 17.5069ZM12.0645 3.62134C11.1652 3.62134 10.1894 5.25002 9.60264 7.73582C10.3953 7.66038 11.2195 7.62134 12.0645 7.62134C12.9094 7.62134 13.7336 7.66038 14.5263 7.73582C13.9395 5.25002 12.9637 3.62134 12.0645 3.62134Z" fill="#2BB4BD"/>
<path d="M8.71897 4.26366L8.94096 4.37865L9.25031 3.78146L8.626 4.03159L8.71897 4.26366ZM3.70677 9.27586L3.47471 9.18288L3.22457 9.8072L3.82176 9.49784L3.70677 9.27586ZM7.48171 8.0386L7.52941 8.284L7.69495 8.25183L7.72712 8.08629L7.48171 8.0386ZM16.6472 8.0386L16.4018 8.0863L16.434 8.25183L16.5995 8.28401L16.6472 8.0386ZM15.4099 4.26366L15.5029 4.03159L14.8786 3.78146L15.1879 4.37865L15.4099 4.26366ZM20.4221 9.27586L20.3071 9.49784L20.9043 9.8072L20.6542 9.18288L20.4221 9.27586ZM7.17894 10.1595L7.42781 10.1832L7.46085 9.83611L7.1215 9.91622L7.17894 10.1595ZM7.17894 15.0831L7.1215 15.3265L7.46085 15.4066L7.42781 15.0595L7.17894 15.0831ZM16.95 15.0831L16.7011 15.0595L16.6681 15.4066L17.0074 15.3265L16.95 15.0831ZM16.95 10.1595L17.0074 9.91622L16.6681 9.83611L16.7011 10.1832L16.95 10.1595ZM7.48171 17.2041L7.72712 17.1564L7.69495 16.9908L7.52941 16.9587L7.48171 17.2041ZM3.70677 15.9668L3.82176 15.7448L3.22457 15.4355L3.4747 16.0598L3.70677 15.9668ZM8.71897 20.979L8.62599 21.2111L9.25031 21.4612L8.94096 20.864L8.71897 20.979ZM15.4099 20.979L15.1879 20.864L14.8786 21.4612L15.5029 21.2111L15.4099 20.979ZM16.6472 17.2041L16.5995 16.9587L16.434 16.9908L16.4018 17.1564L16.6472 17.2041ZM20.4221 15.9668L20.6542 16.0598L20.9043 15.4355L20.3071 15.7448L20.4221 15.9668ZM9.23707 9.79396L9.20617 9.54588L9.01305 9.56993L8.98899 9.76305L9.23707 9.79396ZM14.8918 9.79396L15.1399 9.76305L15.1159 9.56993L14.9227 9.54588L14.8918 9.79396ZM14.8918 15.4487L14.9227 15.6968L15.1159 15.6727L15.1399 15.4796L14.8918 15.4487ZM9.23707 15.4487L8.98899 15.4796L9.01305 15.6727L9.20617 15.6968L9.23707 15.4487ZM9.60264 17.5069L9.62633 17.258L9.27923 17.2249L9.35933 17.5643L9.60264 17.5069ZM14.5263 17.5069L14.7696 17.5643L14.8497 17.2249L14.5026 17.258L14.5263 17.5069ZM9.60264 7.73582L9.35933 7.67838L9.27923 8.01773L9.62633 7.9847L9.60264 7.73582ZM14.5263 7.73582L14.5026 7.9847L14.8497 8.01773L14.7696 7.67838L14.5263 7.73582ZM12.0645 1.87134C18.0015 1.87134 22.8145 6.68428 22.8145 12.6213H23.3145C23.3145 6.40813 18.2777 1.37134 12.0645 1.37134V1.87134ZM1.31445 12.6213C1.31445 6.68428 6.12739 1.87134 12.0645 1.87134V1.37134C5.85125 1.37134 0.814453 6.40813 0.814453 12.6213H1.31445ZM12.0645 23.3713C6.12739 23.3713 1.31445 18.5584 1.31445 12.6213H0.814453C0.814453 18.8345 5.85125 23.8713 12.0645 23.8713V23.3713ZM22.8145 12.6213C22.8145 18.5584 18.0015 23.3713 12.0645 23.3713V23.8713C18.2777 23.8713 23.3145 18.8345 23.3145 12.6213H22.8145ZM8.626 4.03159C6.28285 4.97038 4.41349 6.83973 3.47471 9.18288L3.93884 9.36883C4.82681 7.15253 6.59565 5.38369 8.81195 4.49572L8.626 4.03159ZM7.72712 8.08629C8.00664 6.64814 8.41976 5.38478 8.94096 4.37865L8.49699 4.14867C7.94843 5.20763 7.52238 6.51901 7.2363 7.9909L7.72712 8.08629ZM3.82176 9.49784C4.8279 8.97665 6.09125 8.56352 7.52941 8.284L7.43401 7.79319C5.96213 8.07927 4.65075 8.50531 3.59178 9.05387L3.82176 9.49784ZM16.8926 7.9909C16.6065 6.51901 16.1805 5.20763 15.6319 4.14867L15.1879 4.37865C15.7091 5.38478 16.1223 6.64814 16.4018 8.0863L16.8926 7.9909ZM20.5371 9.05387C19.4782 8.50531 18.1668 8.07927 16.6949 7.79319L16.5995 8.28401C18.0377 8.56353 19.301 8.97665 20.3071 9.49784L20.5371 9.05387ZM15.317 4.49572C17.5333 5.38369 19.3021 7.15253 20.1901 9.36884L20.6542 9.18288C19.7154 6.83973 17.8461 4.97038 15.5029 4.03159L15.317 4.49572ZM7.1215 9.91622C5.86337 10.2132 4.80827 10.6116 4.06113 11.0588C3.68781 11.2822 3.38189 11.5235 3.16667 11.7787C2.95165 12.0336 2.81445 12.3183 2.81445 12.6213H3.31445C3.31445 12.4747 3.38084 12.3003 3.54889 12.101C3.71672 11.902 3.97333 11.694 4.31791 11.4878C5.00656 11.0756 6.0087 10.6926 7.23637 10.4028L7.1215 9.91622ZM7.31445 12.6213C7.31445 11.784 7.35315 10.9677 7.42781 10.1832L6.93006 10.1358C6.85385 10.9366 6.81445 11.7687 6.81445 12.6213H7.31445ZM7.42781 15.0595C7.35315 14.275 7.31445 13.4587 7.31445 12.6213H6.81445C6.81445 13.474 6.85385 14.3061 6.93006 15.1068L7.42781 15.0595ZM2.81445 12.6213C2.81445 12.9243 2.95165 13.2091 3.16667 13.464C3.38189 13.7192 3.68781 13.9605 4.06113 14.1839C4.80827 14.6311 5.86337 15.0295 7.1215 15.3265L7.23637 14.8398C6.0087 14.55 5.00656 14.1671 4.31791 13.7549C3.97333 13.5486 3.71672 13.3407 3.54889 13.1417C3.38084 12.9424 3.31445 12.768 3.31445 12.6213H2.81445ZM17.1988 15.1068C17.2751 14.3061 17.3145 13.474 17.3145 12.6213H16.8145C16.8145 13.4587 16.7758 14.275 16.7011 15.0595L17.1988 15.1068ZM20.8145 12.6213C20.8145 12.768 20.7481 12.9424 20.58 13.1417C20.4122 13.3407 20.1556 13.5486 19.811 13.7549C19.1223 14.1671 18.1202 14.55 16.8925 14.8398L17.0074 15.3265C18.2655 15.0295 19.3206 14.6311 20.0678 14.1839C20.4411 13.9605 20.747 13.7192 20.9622 13.464C21.1773 13.2091 21.3145 12.9243 21.3145 12.6213H20.8145ZM16.8925 10.4028C18.1202 10.6926 19.1223 11.0756 19.811 11.4878C20.1556 11.694 20.4122 11.902 20.58 12.101C20.7481 12.3003 20.8145 12.4747 20.8145 12.6213H21.3145C21.3145 12.3183 21.1773 12.0336 20.9622 11.7787C20.747 11.5235 20.4411 11.2822 20.0678 11.0588C19.3206 10.6116 18.2655 10.2132 17.0074 9.91622L16.8925 10.4028ZM17.3145 12.6213C17.3145 11.7687 17.2751 10.9366 17.1988 10.1358L16.7011 10.1832C16.7758 10.9677 16.8145 11.784 16.8145 12.6213H17.3145ZM7.52941 16.9587C6.09125 16.6791 4.8279 16.266 3.82176 15.7448L3.59178 16.1888C4.65075 16.7374 5.96213 17.1634 7.43401 17.4495L7.52941 16.9587ZM8.94096 20.864C8.41976 19.8579 8.00664 18.5945 7.72712 17.1564L7.2363 17.2518C7.52238 18.7237 7.94843 20.035 8.49699 21.094L8.94096 20.864ZM3.4747 16.0598C4.41349 18.4029 6.28285 20.2723 8.62599 21.2111L8.81195 20.747C6.59565 19.859 4.82681 18.0901 3.93884 15.8738L3.4747 16.0598ZM15.6319 21.094C16.1805 20.035 16.6065 18.7237 16.8926 17.2518L16.4018 17.1564C16.1223 18.5945 15.7091 19.8579 15.1879 20.864L15.6319 21.094ZM20.1901 15.8738C19.3021 18.0901 17.5333 19.859 15.317 20.747L15.5029 21.2111C17.8461 20.2723 19.7154 18.4029 20.6542 16.0598L20.1901 15.8738ZM16.6949 17.4495C18.1668 17.1634 19.4782 16.7374 20.5371 16.1888L20.3071 15.7448C19.301 16.266 18.0377 16.6791 16.5995 16.9587L16.6949 17.4495ZM8.98899 9.76305C8.8772 10.6604 8.81445 11.6207 8.81445 12.6213H9.31445C9.31445 11.6414 9.37592 10.7017 9.48516 9.82486L8.98899 9.76305ZM12.0645 9.37134C11.0638 9.37134 10.1035 9.43409 9.20617 9.54588L9.26798 10.042C10.1448 9.9328 11.0846 9.87134 12.0645 9.87134V9.37134ZM14.9227 9.54588C14.0254 9.43409 13.0651 9.37134 12.0645 9.37134V9.87134C13.0443 9.87134 13.9841 9.9328 14.8609 10.042L14.9227 9.54588ZM15.3145 12.6213C15.3145 11.6207 15.2517 10.6604 15.1399 9.76305L14.6438 9.82486C14.753 10.7017 14.8145 11.6414 14.8145 12.6213H15.3145ZM15.1399 15.4796C15.2517 14.5823 15.3145 13.622 15.3145 12.6213H14.8145C14.8145 13.6012 14.753 14.5409 14.6438 15.4178L15.1399 15.4796ZM12.0645 15.8713C13.0651 15.8713 14.0254 15.8086 14.9227 15.6968L14.8609 15.2006C13.9841 15.3099 13.0443 15.3713 12.0645 15.3713V15.8713ZM9.20617 15.6968C10.1035 15.8086 11.0638 15.8713 12.0645 15.8713V15.3713C11.0846 15.3713 10.1448 15.3099 9.26798 15.2006L9.20617 15.6968ZM8.81445 12.6213C8.81445 13.622 8.8772 14.5823 8.98899 15.4796L9.48516 15.4178C9.37592 14.5409 9.31445 13.6012 9.31445 12.6213H8.81445ZM9.35933 17.5643C9.65633 18.8224 10.0547 19.8775 10.5019 20.6247C10.7253 20.998 10.9666 21.3039 11.2218 21.5191C11.4767 21.7341 11.7615 21.8713 12.0645 21.8713V21.3713C11.9178 21.3713 11.7434 21.305 11.5441 21.1369C11.3451 20.9691 11.1371 20.7125 10.9309 20.3679C10.5187 19.6792 10.1358 18.6771 9.84596 17.4494L9.35933 17.5643ZM12.0645 21.8713C12.3675 21.8713 12.6522 21.7341 12.9071 21.5191C13.1623 21.3039 13.4036 20.998 13.627 20.6247C14.0742 19.8775 14.4726 18.8224 14.7696 17.5643L14.2829 17.4494C13.9931 18.6771 13.6102 19.6792 13.198 20.3679C12.9918 20.7125 12.7838 20.9691 12.5848 21.1369C12.3855 21.305 12.2111 21.3713 12.0645 21.3713V21.8713ZM14.5026 17.258C13.7181 17.3326 12.9018 17.3713 12.0645 17.3713V17.8713C12.9171 17.8713 13.7492 17.8319 14.5499 17.7557L14.5026 17.258ZM12.0645 17.3713C11.2271 17.3713 10.4108 17.3326 9.62633 17.258L9.57896 17.7557C10.3797 17.8319 11.2118 17.8713 12.0645 17.8713V17.3713ZM9.84596 7.79326C10.1358 6.56559 10.5187 5.56345 10.9309 4.8748C11.1371 4.53022 11.3451 4.27361 11.5441 4.10577C11.7434 3.93772 11.9178 3.87134 12.0645 3.87134V3.37134C11.7615 3.37134 11.4767 3.50854 11.2218 3.72355C10.9666 3.93877 10.7253 4.2447 10.5019 4.61801C10.0547 5.36515 9.65633 6.42026 9.35933 7.67838L9.84596 7.79326ZM12.0645 7.37134C11.2118 7.37134 10.3797 7.41074 9.57896 7.48695L9.62633 7.9847C10.4108 7.91003 11.2271 7.87134 12.0645 7.87134V7.37134ZM14.5499 7.48695C13.7492 7.41074 12.9171 7.37134 12.0645 7.37134V7.87134C12.9018 7.87134 13.7181 7.91003 14.5026 7.9847L14.5499 7.48695ZM12.0645 3.87134C12.2111 3.87134 12.3855 3.93772 12.5848 4.10577C12.7838 4.27361 12.9918 4.53022 13.198 4.8748C13.6102 5.56345 13.9931 6.56559 14.2829 7.79326L14.7696 7.67838C14.4726 6.42026 14.0742 5.36515 13.627 4.61801C13.4036 4.2447 13.1623 3.93877 12.9071 3.72355C12.6522 3.50854 12.3675 3.37134 12.0645 3.37134V3.87134Z" fill="white"/>
</svg>
