<svg width="40" height="41" viewBox="0 0 40 41" fill="none" xmlns="http://www.w3.org/2000/svg">
<path fill-rule="evenodd" clip-rule="evenodd" d="M13.8887 18.5L19.89 12.4987L25.8913 18.5H25.89V28.5H13.89V18.5H13.8887ZM11.89 20.4987L10.4132 21.9755L9 20.5623L18.477 11.0853C19.2574 10.3049 20.5226 10.3049 21.303 11.0853L30.78 20.5623L29.3668 21.9755L27.89 20.4987V28.5C27.89 29.6046 26.9946 30.5 25.89 30.5H13.89C12.7854 30.5 11.89 29.6046 11.89 28.5V20.4987Z" fill="#01488B"/>
<path d="M19.89 12.4987L20.0668 12.3219L19.89 12.1451L19.7132 12.3219L19.89 12.4987ZM13.8887 18.5L13.7119 18.3232L13.2851 18.75H13.8887V18.5ZM25.8913 18.5V18.75H26.4949L26.0681 18.3232L25.8913 18.5ZM25.89 18.5V18.25H25.64V18.5H25.89ZM25.89 28.5V28.75H26.14V28.5H25.89ZM13.89 28.5H13.64V28.75H13.89V28.5ZM13.89 18.5H14.14V18.25H13.89V18.5ZM11.89 20.4987H12.14V19.8951L11.7132 20.3219L11.89 20.4987ZM10.4132 21.9755L10.2364 22.1523L10.4132 22.329L10.59 22.1523L10.4132 21.9755ZM9 20.5623L8.82322 20.3855L8.64645 20.5623L8.82322 20.7391L9 20.5623ZM18.477 11.0853L18.6538 11.2621V11.2621L18.477 11.0853ZM21.303 11.0853L21.1262 11.2621V11.2621L21.303 11.0853ZM30.78 20.5623L30.9568 20.7391L31.1336 20.5623L30.9568 20.3855L30.78 20.5623ZM29.3668 21.9755L29.19 22.1523L29.3668 22.329L29.5436 22.1523L29.3668 21.9755ZM27.89 20.4987L28.0668 20.3219L27.64 19.8951V20.4987H27.89ZM19.7132 12.3219L13.7119 18.3232L14.0654 18.6768L20.0668 12.6754L19.7132 12.3219ZM26.0681 18.3232L20.0668 12.3219L19.7132 12.6754L25.7146 18.6768L26.0681 18.3232ZM25.89 18.75H25.8913V18.25H25.89V18.75ZM26.14 28.5V18.5H25.64V28.5H26.14ZM13.89 28.75H25.89V28.25H13.89V28.75ZM13.64 18.5V28.5H14.14V18.5H13.64ZM13.8887 18.75H13.89V18.25H13.8887V18.75ZM11.7132 20.3219L10.2364 21.7987L10.59 22.1523L12.0668 20.6754L11.7132 20.3219ZM10.59 21.7987L9.17678 20.3855L8.82322 20.7391L10.2364 22.1523L10.59 21.7987ZM9.17678 20.7391L18.6538 11.2621L18.3002 10.9085L8.82322 20.3855L9.17678 20.7391ZM18.6538 11.2621C19.3365 10.5793 20.4435 10.5793 21.1262 11.2621L21.4798 10.9085C20.6018 10.0305 19.1782 10.0305 18.3002 10.9085L18.6538 11.2621ZM21.1262 11.2621L30.6032 20.7391L30.9568 20.3855L21.4798 10.9085L21.1262 11.2621ZM30.6032 20.3855L29.19 21.7987L29.5436 22.1523L30.9568 20.7391L30.6032 20.3855ZM29.5436 21.7987L28.0668 20.3219L27.7132 20.6755L29.19 22.1523L29.5436 21.7987ZM27.64 20.4987V28.5H28.14V20.4987H27.64ZM27.64 28.5C27.64 29.4665 26.8565 30.25 25.89 30.25V30.75C27.1327 30.75 28.14 29.7426 28.14 28.5H27.64ZM25.89 30.25H13.89V30.75H25.89V30.25ZM13.89 30.25C12.9235 30.25 12.14 29.4665 12.14 28.5H11.64C11.64 29.7426 12.6474 30.75 13.89 30.75V30.25ZM12.14 28.5V20.4987H11.64V28.5H12.14Z" fill="white"/>
</svg>
