<svg width="41" height="41" viewBox="0 0 41 41" fill="none" xmlns="http://www.w3.org/2000/svg">
<path fill-rule="evenodd" clip-rule="evenodd" d="M12.7329 10.7876H28.7329C29.8375 10.7876 30.7329 11.683 30.7329 12.7876V28.7876C30.7329 29.8922 29.8375 30.7876 28.7329 30.7876H12.7329C11.6283 30.7876 10.7329 29.8922 10.7329 28.7876V12.7876C10.7329 11.683 11.6283 10.7876 12.7329 10.7876ZM12.7329 12.7876V28.7876H28.7329V12.7876H12.7329ZM21.7329 17.7876C21.2152 17.7876 20.6682 17.9459 20.1851 18.2397L19.7329 17.7876H18.7329V24.7876H20.7329V20.7876C20.7329 20.2119 21.3269 19.7876 21.7329 19.7876H22.7329C23.139 19.7876 23.7329 20.2119 23.7329 20.7876V24.7876H25.7329V20.7876C25.7329 18.9348 24.1269 17.7876 22.7329 17.7876H21.7329ZM16.7329 16.7876C17.2852 16.7876 17.7329 16.3399 17.7329 15.7876C17.7329 15.2353 17.2852 14.7876 16.7329 14.7876C16.1806 14.7876 15.7329 15.2353 15.7329 15.7876C15.7329 16.3399 16.1806 16.7876 16.7329 16.7876ZM15.7329 17.7876V24.7876H17.7329V17.7876H15.7329Z" fill="#01488B"/>
<path d="M12.7329 28.7876H12.4829V29.0376H12.7329V28.7876ZM12.7329 12.7876V12.5376H12.4829V12.7876H12.7329ZM28.7329 28.7876V29.0376H28.9829V28.7876H28.7329ZM28.7329 12.7876H28.9829V12.5376H28.7329V12.7876ZM20.1851 18.2397L20.0083 18.4165L20.1472 18.5554L20.315 18.4533L20.1851 18.2397ZM19.7329 17.7876L19.9097 17.6108L19.8365 17.5376H19.7329V17.7876ZM18.7329 17.7876V17.5376H18.4829V17.7876H18.7329ZM18.7329 24.7876H18.4829V25.0376H18.7329V24.7876ZM20.7329 24.7876V25.0376H20.9829V24.7876H20.7329ZM23.7329 24.7876H23.4829V25.0376H23.7329V24.7876ZM25.7329 24.7876V25.0376H25.9829V24.7876H25.7329ZM15.7329 24.7876H15.4829V25.0376H15.7329V24.7876ZM15.7329 17.7876V17.5376H15.4829V17.7876H15.7329ZM17.7329 24.7876V25.0376H17.9829V24.7876H17.7329ZM17.7329 17.7876H17.9829V17.5376H17.7329V17.7876ZM28.7329 10.5376H12.7329V11.0376H28.7329V10.5376ZM30.9829 12.7876C30.9829 11.545 29.9756 10.5376 28.7329 10.5376V11.0376C29.6994 11.0376 30.4829 11.8211 30.4829 12.7876H30.9829ZM30.9829 28.7876V12.7876H30.4829V28.7876H30.9829ZM28.7329 31.0376C29.9756 31.0376 30.9829 30.0302 30.9829 28.7876H30.4829C30.4829 29.7541 29.6994 30.5376 28.7329 30.5376V31.0376ZM12.7329 31.0376H28.7329V30.5376H12.7329V31.0376ZM10.4829 28.7876C10.4829 30.0302 11.4903 31.0376 12.7329 31.0376V30.5376C11.7664 30.5376 10.9829 29.7541 10.9829 28.7876H10.4829ZM10.4829 12.7876V28.7876H10.9829V12.7876H10.4829ZM12.7329 10.5376C11.4903 10.5376 10.4829 11.545 10.4829 12.7876H10.9829C10.9829 11.8211 11.7664 11.0376 12.7329 11.0376V10.5376ZM12.9829 28.7876V12.7876H12.4829V28.7876H12.9829ZM28.7329 28.5376H12.7329V29.0376H28.7329V28.5376ZM28.4829 12.7876V28.7876H28.9829V12.7876H28.4829ZM12.7329 13.0376H28.7329V12.5376H12.7329V13.0376ZM20.315 18.4533C20.762 18.1814 21.2645 18.0376 21.7329 18.0376V17.5376C21.1658 17.5376 20.5743 17.7103 20.0551 18.0262L20.315 18.4533ZM19.5561 17.9644L20.0083 18.4165L20.3618 18.063L19.9097 17.6108L19.5561 17.9644ZM18.7329 18.0376H19.7329V17.5376H18.7329V18.0376ZM18.9829 24.7876V17.7876H18.4829V24.7876H18.9829ZM20.7329 24.5376H18.7329V25.0376H20.7329V24.5376ZM20.4829 20.7876V24.7876H20.9829V20.7876H20.4829ZM21.7329 19.5376C21.4538 19.5376 21.1469 19.6772 20.9141 19.8853C20.6773 20.0969 20.4829 20.4101 20.4829 20.7876H20.9829C20.9829 20.5894 21.0855 20.4026 21.2472 20.2581C21.4129 20.1101 21.606 20.0376 21.7329 20.0376V19.5376ZM22.7329 19.5376H21.7329V20.0376H22.7329V19.5376ZM23.9829 20.7876C23.9829 20.4101 23.7886 20.0969 23.5518 19.8853C23.3189 19.6772 23.012 19.5376 22.7329 19.5376V20.0376C22.8598 20.0376 23.0529 20.1101 23.2186 20.2581C23.3803 20.4026 23.4829 20.5894 23.4829 20.7876H23.9829ZM23.9829 24.7876V20.7876H23.4829V24.7876H23.9829ZM25.7329 24.5376H23.7329V25.0376H25.7329V24.5376ZM25.4829 20.7876V24.7876H25.9829V20.7876H25.4829ZM22.7329 18.0376C24.0141 18.0376 25.4829 19.0969 25.4829 20.7876H25.9829C25.9829 18.7727 24.2396 17.5376 22.7329 17.5376V18.0376ZM21.7329 18.0376H22.7329V17.5376H21.7329V18.0376ZM17.4829 15.7876C17.4829 16.2018 17.1471 16.5376 16.7329 16.5376V17.0376C17.4233 17.0376 17.9829 16.478 17.9829 15.7876H17.4829ZM16.7329 15.0376C17.1471 15.0376 17.4829 15.3734 17.4829 15.7876H17.9829C17.9829 15.0972 17.4233 14.5376 16.7329 14.5376V15.0376ZM15.9829 15.7876C15.9829 15.3734 16.3187 15.0376 16.7329 15.0376V14.5376C16.0426 14.5376 15.4829 15.0972 15.4829 15.7876H15.9829ZM16.7329 16.5376C16.3187 16.5376 15.9829 16.2018 15.9829 15.7876H15.4829C15.4829 16.478 16.0426 17.0376 16.7329 17.0376V16.5376ZM15.9829 24.7876V17.7876H15.4829V24.7876H15.9829ZM17.7329 24.5376H15.7329V25.0376H17.7329V24.5376ZM17.4829 17.7876V24.7876H17.9829V17.7876H17.4829ZM15.7329 18.0376H17.7329V17.5376H15.7329V18.0376Z" fill="white"/>
</svg>
