<svg width="40" height="41" viewBox="0 0 40 41" fill="none" xmlns="http://www.w3.org/2000/svg">
<path fill-rule="evenodd" clip-rule="evenodd" d="M12 26.5V13.5H24V26.5C24 26.8506 24.0602 27.1872 24.1707 27.5H13C12.4477 27.5 12 27.0523 12 26.5ZM27 29.5H13C11.3431 29.5 10 28.1569 10 26.5V11.5H24H25H26V16.5H30V17.5V18.5V26.5C30 28.1569 28.6569 29.5 27 29.5ZM26 18.5H28V26.5C28 27.0523 27.5523 27.5 27 27.5C26.4477 27.5 26 27.0523 26 26.5V18.5ZM18 15.5V19.5H14V15.5H18ZM22 18.5V16.5H19V18.5H22ZM22 20.5V22.5H14V20.5H22ZM22 25.5V23.5H14V25.5H22Z" fill="#01488B"/>
<path d="M12 13.5V13.25H11.75V13.5H12ZM24 13.5H24.25V13.25H24V13.5ZM24.1707 27.5V27.75H24.5242L24.4064 27.4167L24.1707 27.5ZM10 11.5V11.25H9.75V11.5H10ZM26 11.5H26.25V11.25H26V11.5ZM26 16.5H25.75V16.75H26V16.5ZM30 16.5H30.25V16.25H30V16.5ZM28 18.5H28.25V18.25H28V18.5ZM26 18.5V18.25H25.75V18.5H26ZM18 19.5V19.75H18.25V19.5H18ZM18 15.5H18.25V15.25H18V15.5ZM14 19.5H13.75V19.75H14V19.5ZM14 15.5V15.25H13.75V15.5H14ZM22 16.5H22.25V16.25H22V16.5ZM22 18.5V18.75H22.25V18.5H22ZM19 16.5V16.25H18.75V16.5H19ZM19 18.5H18.75V18.75H19V18.5ZM22 22.5V22.75H22.25V22.5H22ZM22 20.5H22.25V20.25H22V20.5ZM14 22.5H13.75V22.75H14V22.5ZM14 20.5V20.25H13.75V20.5H14ZM22 23.5H22.25V23.25H22V23.5ZM22 25.5V25.75H22.25V25.5H22ZM14 23.5V23.25H13.75V23.5H14ZM14 25.5H13.75V25.75H14V25.5ZM11.75 13.5V26.5H12.25V13.5H11.75ZM24 13.25H12V13.75H24V13.25ZM24.25 26.5V13.5H23.75V26.5H24.25ZM24.4064 27.4167C24.3052 27.1303 24.25 26.8219 24.25 26.5H23.75C23.75 26.8794 23.8151 27.2441 23.935 27.5833L24.4064 27.4167ZM13 27.75H24.1707V27.25H13V27.75ZM11.75 26.5C11.75 27.1904 12.3096 27.75 13 27.75V27.25C12.5858 27.25 12.25 26.9142 12.25 26.5H11.75ZM13 29.75H27V29.25H13V29.75ZM9.75 26.5C9.75 28.2949 11.2051 29.75 13 29.75V29.25C11.4812 29.25 10.25 28.0188 10.25 26.5H9.75ZM9.75 11.5V26.5H10.25V11.5H9.75ZM24 11.25H10V11.75H24V11.25ZM25 11.25H24V11.75H25V11.25ZM26 11.25H25V11.75H26V11.25ZM26.25 16.5V11.5H25.75V16.5H26.25ZM30 16.25H26V16.75H30V16.25ZM30.25 17.5V16.5H29.75V17.5H30.25ZM30.25 18.5V17.5H29.75V18.5H30.25ZM30.25 26.5V18.5H29.75V26.5H30.25ZM27 29.75C28.7949 29.75 30.25 28.2949 30.25 26.5H29.75C29.75 28.0188 28.5188 29.25 27 29.25V29.75ZM28 18.25H26V18.75H28V18.25ZM28.25 26.5V18.5H27.75V26.5H28.25ZM27 27.75C27.6904 27.75 28.25 27.1904 28.25 26.5H27.75C27.75 26.9142 27.4142 27.25 27 27.25V27.75ZM25.75 26.5C25.75 27.1904 26.3096 27.75 27 27.75V27.25C26.5858 27.25 26.25 26.9142 26.25 26.5H25.75ZM25.75 18.5V26.5H26.25V18.5H25.75ZM18.25 19.5V15.5H17.75V19.5H18.25ZM14 19.75H18V19.25H14V19.75ZM13.75 15.5V19.5H14.25V15.5H13.75ZM18 15.25H14V15.75H18V15.25ZM21.75 16.5V18.5H22.25V16.5H21.75ZM19 16.75H22V16.25H19V16.75ZM19.25 18.5V16.5H18.75V18.5H19.25ZM22 18.25H19V18.75H22V18.25ZM22.25 22.5V20.5H21.75V22.5H22.25ZM14 22.75H22V22.25H14V22.75ZM13.75 20.5V22.5H14.25V20.5H13.75ZM22 20.25H14V20.75H22V20.25ZM21.75 23.5V25.5H22.25V23.5H21.75ZM14 23.75H22V23.25H14V23.75ZM14.25 25.5V23.5H13.75V25.5H14.25ZM22 25.25H14V25.75H22V25.25Z" fill="white"/>
</svg>
