<svg width="26" height="26" viewBox="0 0 26 26" fill="none" xmlns="http://www.w3.org/2000/svg">
<path d="M25.9507 8.4355L17.6486 0.230943C17.5012 0.0850843 17.3047 0 17.0959 0H0.184683C0.0250263 0 -0.0609436 0.194478 0.0495872 0.316027C1.92537 2.17252 8.08864 8.27239 8.54589 8.72493C8.56486 8.74372 8.57276 8.76655 8.57276 8.79325V25.817C8.57276 25.975 8.76925 26.0601 8.89207 25.9507L17.1942 17.734C17.3415 17.5881 17.4275 17.3937 17.4275 17.187V8.85153C17.4275 8.7963 17.4723 8.75153 17.5275 8.75153H25.8156C25.9752 8.75153 26.0612 8.55705 25.9507 8.4355Z" fill="#01488B"/>
</svg>
