<svg width="41" height="41" viewBox="0 0 41 41" fill="none" xmlns="http://www.w3.org/2000/svg">
<path fill-rule="evenodd" clip-rule="evenodd" d="M29.8524 13.2959L31.2672 13.4611L30.6312 14.7356C30.3211 15.3571 30.0107 15.9787 29.7 16.6002C29.6631 16.7318 29.5983 16.8472 29.5026 16.9975C29.4625 17.0603 29.3258 17.26 29.3194 17.2695C29.2833 17.3237 29.2566 17.3664 29.2374 17.4006V19.7891C29.2374 25.9011 23.3224 29.785 17.7365 29.785C16.5934 29.785 15.725 29.7303 14.7306 29.5133C13.0941 29.1561 11.8762 28.4463 11.3189 27.2056L10.7451 25.9283L12.1395 25.8C13.4009 25.684 14.4946 25.4437 15.3345 25.1219C13.0287 24.7511 11.7365 23.7384 11.7365 21.8365V20.8365H12.7365C12.9562 20.8365 13.1543 20.8187 13.3315 20.7859C11.6009 19.7512 10.7341 18.0914 10.7341 15.7891C10.7339 15.691 10.7339 15.691 10.7334 15.5861C10.7269 14.4256 10.7892 13.8056 11.1069 13.0142C11.3105 12.507 11.6047 12.0375 12.0008 11.6073L12.7554 10.7876L13.4891 11.6261C15.9068 14.3892 18.2969 16.0656 20.7371 16.2683C20.7475 13.7186 22.6744 11.7891 25.2372 11.7891C26.432 11.7891 27.5157 12.2426 28.3674 13.0603C28.8335 13.1561 29.3286 13.2347 29.8524 13.2959ZM27.6416 14.9496L27.335 14.8802L27.1233 14.6479C26.6114 14.0861 25.9688 13.7891 25.2372 13.7891C23.7743 13.7891 22.737 14.8315 22.737 16.2891C22.737 16.5273 22.7309 16.677 22.7012 16.8737C22.5828 17.6588 22.1425 18.2891 21.237 18.2891C18.239 18.2891 15.5343 16.683 12.8968 13.9399C12.7608 14.3532 12.7289 14.7781 12.7333 15.5749C12.7339 15.6814 12.7339 15.6814 12.7341 15.7891C12.7341 17.8371 13.5638 18.9574 15.5284 19.5818L16.2255 19.8033V20.5348C16.2255 21.4218 15.3851 22.2567 14.1556 22.6307C14.7192 23.0584 15.8719 23.2891 17.7368 23.2891H18.7368V24.2891C18.7368 25.7219 17.0905 26.8437 14.6037 27.4295C15.4147 27.6779 16.4946 27.785 17.7365 27.785C22.3509 27.785 27.2374 24.5764 27.2374 19.7891V17.2891C27.2374 16.9953 27.3226 16.7403 27.4641 16.4752C27.5194 16.3715 27.5803 16.2727 27.6554 16.16C27.6696 16.1388 27.7221 16.0619 27.7638 16.0004L27.843 15.8419C27.9715 15.585 28.0998 15.3282 28.2282 15.0714C28.0287 15.0336 27.8332 14.993 27.6416 14.9496Z" fill="#01488B"/>
<path d="M29.8524 13.2959L29.8234 13.5442L29.8524 13.2959ZM31.2672 13.4611L31.4909 13.5727L31.6499 13.2541L31.2962 13.2128L31.2672 13.4611ZM30.6312 14.7356L30.4075 14.624V14.624L30.6312 14.7356ZM29.7 16.6002L29.4763 16.4884L29.4657 16.5098L29.4592 16.5328L29.7 16.6002ZM29.5026 16.9975L29.7134 17.1319L29.5026 16.9975ZM29.3194 17.2695L29.1114 17.1308L29.3194 17.2695ZM29.2374 17.4006L29.0194 17.2782L28.9874 17.3352V17.4006H29.2374ZM14.7306 29.5133L14.6773 29.7575L14.7306 29.5133ZM11.3189 27.2056L11.0908 27.308H11.0908L11.3189 27.2056ZM10.7451 25.9283L10.7222 25.6793L10.3736 25.7114L10.5171 26.0307L10.7451 25.9283ZM12.1395 25.8L12.1624 26.049H12.1624L12.1395 25.8ZM15.3345 25.1219L15.4239 25.3554L16.2922 25.0227L15.3742 24.8751L15.3345 25.1219ZM11.7365 20.8365V20.5865H11.4865V20.8365H11.7365ZM13.3315 20.7859L13.3769 21.0318L14.0285 20.9114L13.4597 20.5714L13.3315 20.7859ZM10.7341 15.7891H10.9841L10.9841 15.7886L10.7341 15.7891ZM10.7334 15.5861L10.4834 15.5875L10.4834 15.5875L10.7334 15.5861ZM11.1069 13.0142L11.3389 13.1073L11.1069 13.0142ZM12.0008 11.6073L11.8169 11.4379L12.0008 11.6073ZM12.7554 10.7876L12.9436 10.623L12.7601 10.4134L12.5715 10.6183L12.7554 10.7876ZM13.4891 11.6261L13.3009 11.7907L13.4891 11.6261ZM20.7371 16.2683L20.7164 16.5175L20.986 16.5399L20.9871 16.2693L20.7371 16.2683ZM28.3674 13.0603L28.1942 13.2407L28.2463 13.2907L28.3171 13.3052L28.3674 13.0603ZM27.6416 14.9496L27.6968 14.7058L27.6416 14.9496ZM27.335 14.8802L27.1502 15.0486L27.2031 15.1067L27.2798 15.124L27.335 14.8802ZM27.1233 14.6479L27.3081 14.4795L27.1233 14.6479ZM22.7012 16.8737L22.454 16.8365L22.7012 16.8737ZM12.8968 13.9399L13.077 13.7666L12.7891 13.4672L12.6593 13.8618L12.8968 13.9399ZM12.7333 15.5749L12.4833 15.5763V15.5763L12.7333 15.5749ZM12.7341 15.7891H12.9841L12.9841 15.7886L12.7341 15.7891ZM15.5284 19.5818L15.4526 19.82L15.5284 19.5818ZM16.2255 19.8033H16.4755V19.6205L16.3012 19.5651L16.2255 19.8033ZM14.1556 22.6307L14.0828 22.3916L13.6145 22.534L14.0045 22.8299L14.1556 22.6307ZM18.7368 23.2891H18.9868V23.0391H18.7368V23.2891ZM14.6037 27.4295L14.5463 27.1861L13.6472 27.3979L14.5304 27.6685L14.6037 27.4295ZM27.4641 16.4752L27.6846 16.5929L27.4641 16.4752ZM27.6554 16.16L27.8634 16.2987L27.6554 16.16ZM27.7638 16.0004L27.9707 16.1407L27.98 16.127L27.9874 16.1122L27.7638 16.0004ZM27.843 15.8419L27.6194 15.7301L27.843 15.8419ZM28.2282 15.0714L28.4518 15.1831L28.5996 14.8873L28.2747 14.8257L28.2282 15.0714ZM29.8234 13.5442L31.2382 13.7094L31.2962 13.2128L29.8814 13.0476L29.8234 13.5442ZM31.0435 13.3495L30.4075 14.624L30.8549 14.8472L31.4909 13.5727L31.0435 13.3495ZM30.4075 14.624C30.0975 15.2454 29.7871 15.8669 29.4763 16.4884L29.9236 16.712C30.2343 16.0904 30.5448 15.4688 30.8549 14.8472L30.4075 14.624ZM29.4592 16.5328C29.4329 16.6267 29.3855 16.7161 29.2918 16.8631L29.7134 17.1319C29.8112 16.9784 29.8933 16.8369 29.9407 16.6676L29.4592 16.5328ZM29.2918 16.8631C29.2531 16.9238 29.1231 17.1133 29.1114 17.1308L29.5274 17.4082C29.5273 17.4084 29.5291 17.4057 29.5341 17.3984C29.5386 17.3918 29.5444 17.3833 29.5517 17.3726C29.5661 17.3515 29.5852 17.3235 29.6053 17.2937C29.6446 17.2358 29.6911 17.1669 29.7134 17.1319L29.2918 16.8631ZM29.1114 17.1308C29.0737 17.1874 29.0431 17.2361 29.0194 17.2782L29.4554 17.523C29.4702 17.4967 29.493 17.4599 29.5274 17.4082L29.1114 17.1308ZM28.9874 17.4006V19.7891H29.4874V17.4006H28.9874ZM28.9874 19.7891C28.9874 22.7568 27.5536 25.1879 25.4259 26.8836C23.2948 28.5819 20.475 29.535 17.7365 29.535V30.035C20.5839 30.035 23.5146 29.0462 25.7375 27.2746C27.9638 25.5003 29.4874 22.9334 29.4874 19.7891H28.9874ZM17.7365 29.535C16.6027 29.535 15.754 29.4807 14.7839 29.269L14.6773 29.7575C15.696 29.9798 16.5842 30.035 17.7365 30.035V29.535ZM14.7839 29.269C13.183 28.9197 12.0575 28.2398 11.5469 27.1031L11.0908 27.308C11.6949 28.6527 13.0051 29.3926 14.6773 29.7575L14.7839 29.269ZM11.5469 27.1031L10.9732 25.8258L10.5171 26.0307L11.0908 27.308L11.5469 27.1031ZM10.768 26.1772L12.1624 26.049L12.1166 25.5511L10.7222 25.6793L10.768 26.1772ZM12.1624 26.049C13.4402 25.9315 14.5574 25.6874 15.4239 25.3554L15.2451 24.8885C14.4318 25.2001 13.3616 25.4366 12.1166 25.5511L12.1624 26.049ZM15.3742 24.8751C14.2441 24.6934 13.3973 24.359 12.8359 23.8656C12.2843 23.3808 11.9865 22.7236 11.9865 21.8365H11.4865C11.4865 22.8513 11.8348 23.6514 12.5058 24.2411C13.1669 24.8222 14.119 25.1797 15.2948 25.3688L15.3742 24.8751ZM11.9865 21.8365V20.8365H11.4865V21.8365H11.9865ZM11.7365 21.0865H12.7365V20.5865H11.7365V21.0865ZM12.7365 21.0865C12.9696 21.0865 13.1831 21.0676 13.3769 21.0318L13.286 20.5401C13.1256 20.5697 12.9428 20.5865 12.7365 20.5865V21.0865ZM13.4597 20.5714C11.8162 19.5887 10.9841 18.0177 10.9841 15.7891H10.4841C10.4841 18.1651 11.3856 19.9138 13.2032 21.0005L13.4597 20.5714ZM10.9841 15.7886C10.9839 15.6902 10.9839 15.6899 10.9833 15.5847L10.4834 15.5875C10.4839 15.6921 10.4839 15.6918 10.4841 15.7896L10.9841 15.7886ZM10.9833 15.5847C10.9769 14.4364 11.039 13.8544 11.3389 13.1073L10.8749 12.9211C10.5394 13.7568 10.4768 14.4148 10.4834 15.5875L10.9833 15.5847ZM11.3389 13.1073C11.531 12.6287 11.8088 12.1849 12.1847 11.7766L11.8169 11.4379C11.4007 11.89 11.0899 12.3853 10.8749 12.9211L11.3389 13.1073ZM12.1847 11.7766L12.9393 10.9569L12.5715 10.6183L11.8169 11.4379L12.1847 11.7766ZM12.5673 10.9522L13.3009 11.7907L13.6772 11.4614L12.9436 10.623L12.5673 10.9522ZM13.3009 11.7907C15.731 14.5679 18.1768 16.3064 20.7164 16.5175L20.7578 16.0192C18.417 15.8247 16.0827 14.2105 13.6772 11.4614L13.3009 11.7907ZM20.9871 16.2693C20.9969 13.857 22.8124 12.0391 25.2372 12.0391V11.5391C22.5365 11.5391 20.4981 13.5802 20.4871 16.2673L20.9871 16.2693ZM25.2372 12.0391C26.3653 12.0391 27.3876 12.4662 28.1942 13.2407L28.5405 12.88C27.6439 12.0191 26.4987 11.5391 25.2372 11.5391V12.0391ZM28.3171 13.3052C28.7909 13.4026 29.2931 13.4823 29.8234 13.5442L29.8814 13.0476C29.364 12.9871 28.8761 12.9096 28.4177 12.8154L28.3171 13.3052ZM27.6968 14.7058L27.3902 14.6364L27.2798 15.124L27.5863 15.1934L27.6968 14.7058ZM27.5198 14.7118L27.3081 14.4795L26.9385 14.8163L27.1502 15.0486L27.5198 14.7118ZM27.3081 14.4795C26.752 13.8693 26.0438 13.5391 25.2372 13.5391V14.0391C25.8939 14.0391 26.4708 14.303 26.9385 14.8163L27.3081 14.4795ZM25.2372 13.5391C23.6359 13.5391 22.487 14.6938 22.487 16.2891H22.987C22.987 14.9692 23.9127 14.0391 25.2372 14.0391V13.5391ZM22.487 16.2891C22.487 16.5215 22.481 16.6572 22.454 16.8365L22.9484 16.911C22.9807 16.6968 22.987 16.5332 22.987 16.2891H22.487ZM22.454 16.8365C22.3996 17.1968 22.2746 17.4978 22.0813 17.7055C21.8939 17.9067 21.6255 18.0391 21.237 18.0391V18.5391C21.7539 18.5391 22.1584 18.3564 22.4472 18.0462C22.7301 17.7424 22.8844 17.3357 22.9484 16.911L22.454 16.8365ZM21.237 18.0391C18.3367 18.0391 15.6929 16.4873 13.077 13.7666L12.7166 14.1131C15.3756 16.8787 18.1413 18.5391 21.237 18.5391V18.0391ZM12.6593 13.8618C12.5097 14.3167 12.4788 14.7771 12.4833 15.5763L12.9833 15.5735C12.9789 14.779 13.012 14.3897 13.1343 14.018L12.6593 13.8618ZM12.4833 15.5763C12.4839 15.6825 12.4839 15.6822 12.4841 15.7896L12.9841 15.7886C12.9839 15.6806 12.9839 15.6803 12.9833 15.5735L12.4833 15.5763ZM12.4841 15.7891C12.4841 16.8458 12.6982 17.6965 13.1934 18.3677C13.6883 19.0386 14.4403 19.4983 15.4526 19.82L15.6041 19.3435C14.6519 19.0409 14.0068 18.6282 13.5957 18.0709C13.1849 17.5139 12.9841 16.7805 12.9841 15.7891H12.4841ZM15.4526 19.82L16.1497 20.0416L16.3012 19.5651L15.6041 19.3435L15.4526 19.82ZM15.9755 19.8033V20.5348H16.4755V19.8033H15.9755ZM15.9755 20.5348C15.9755 21.258 15.2696 22.0306 14.0828 22.3916L14.2283 22.8699C15.5006 22.4829 16.4755 21.5856 16.4755 20.5348H15.9755ZM14.0045 22.8299C14.3307 23.0774 14.8034 23.2517 15.4121 23.366C16.0245 23.481 16.7956 23.5391 17.7368 23.5391V23.0391C16.8131 23.0391 16.0755 22.9818 15.5044 22.8746C14.9296 22.7666 14.5441 22.6117 14.3067 22.4316L14.0045 22.8299ZM17.7368 23.5391H18.7368V23.0391H17.7368V23.5391ZM18.4868 23.2891V24.2891H18.9868V23.2891H18.4868ZM18.4868 24.2891C18.4868 24.8982 18.1393 25.4706 17.4544 25.9757C16.7688 26.4813 15.7709 26.8977 14.5463 27.1861L14.661 27.6728C15.9233 27.3755 16.992 26.938 17.7512 26.3781C18.5111 25.8177 18.9868 25.1128 18.9868 24.2891H18.4868ZM14.5304 27.6685C15.3762 27.9276 16.4847 28.035 17.7365 28.035V27.535C16.5044 27.535 15.4532 27.4283 14.6769 27.1904L14.5304 27.6685ZM17.7365 28.035C20.098 28.035 22.5276 27.2151 24.371 25.7796C26.2168 24.3421 27.4874 22.2754 27.4874 19.7891H26.9874C26.9874 22.0901 25.8148 24.0214 24.0637 25.3851C22.3102 26.7506 19.9893 27.535 17.7365 27.535V28.035ZM27.4874 19.7891V17.2891H26.9874V19.7891H27.4874ZM27.4874 17.2891C27.4874 17.0487 27.5557 16.8345 27.6846 16.5929L27.2435 16.3575C27.0894 16.6462 26.9874 16.942 26.9874 17.2891H27.4874ZM27.6846 16.5929C27.7349 16.4986 27.7912 16.407 27.8634 16.2987L27.4474 16.0213C27.3694 16.1383 27.3038 16.2444 27.2435 16.3575L27.6846 16.5929ZM27.8634 16.2987C27.8769 16.2785 27.9277 16.2041 27.9707 16.1407L27.5569 15.8601C27.5165 15.9196 27.4623 15.9991 27.4474 16.0213L27.8634 16.2987ZM27.9874 16.1122L28.0666 15.9537L27.6194 15.7301L27.5402 15.8886L27.9874 16.1122ZM28.0666 15.9537C28.1951 15.6968 28.3235 15.44 28.4518 15.1831L28.0045 14.9596C27.8762 15.2164 27.7478 15.4733 27.6194 15.7301L28.0666 15.9537ZM28.2747 14.8257C28.0781 14.7885 27.8854 14.7485 27.6968 14.7058L27.5863 15.1934C27.781 15.2375 27.9794 15.2787 28.1816 15.317L28.2747 14.8257Z" fill="white"/>
</svg>
