{
  "accessors": [
    {
      "bufferView": 1,
      "componentType": 5126,
      "count": 62922,
      "max": [
        66.275001525878906,
        16.698999404907227,
        53.588001251220703
      ],
      "min": [
        21.666999816894531,
        -24.434999465942383,
        9.6677999496459961
      ],
      "type": "VEC3"
    },
    {
      "bufferView": 1,
      "byteOffset": 755064,
      "componentType": 5126,
      "count": 62922,
      "max": [
        0.99998915195465088,
        0.99989253282546997,
        0.9999886155128479
      ],
      "min": [
        -0.9999726414680481,
        -0.99997431039810181,
        -0.99999618530273438
      ],
      "type": "VEC3"
    },
    {
      "bufferView": 0,
      "componentType": 5125,
      "count": 317460,
      "max": [
        62921
      ],
      "min": [
        0
      ],
      "type": "SCALAR"
    }
  ],
  "asset": {
    "extras": {
      "author": "EnriqueBumbury (https://sketchfab.com/EnriqueBumbury)",
      "license": "CC-BY-4.0 (http://creativecommons.org/licenses/by/4.0/)",
      "source": "https://sketchfab.com/3d-models/1tim-structure-of-triose-phosphate-isomerase-6bd31f23c0a84b29ae351d9b7fc0b4ca",
      "title": "1TIM: STRUCTURE OF TRIOSE PHOSPHATE ISOMERASE"
    },
    "generator": "Sketchfab-9.66.0",
    "version": "2.0"
  },
  "bufferViews": [
    {
      "buffer": 0,
      "byteLength": 1269840,
      "byteOffset": 0,
      "name": "floatBufferViews",
      "target": 34963
    },
    {
      "buffer": 0,
      "byteLength": 1510128,
      "byteOffset": 1269840,
      "byteStride": 12,
      "name": "floatBufferViews",
      "target": 34962
    }
  ],
  "buffers": [
    {
      "byteLength": 2779968,
      "uri": "scene.bin"
    }
  ],
  "materials": [
    {
      "doubleSided": true,
      "name": "material_0",
      "pbrMetallicRoughness": {
        "baseColorFactor": [
          0.17780919266395573,
          0.6058731968094917,
          0.87410166886254015,
          1
        ],
        "metallicFactor": 0,
        "roughnessFactor": 0.59999999999999998
      }
    }
  ],
  "meshes": [
    {
      "primitives": [
        {
          "attributes": {
            "NORMAL": 1,
            "POSITION": 0
          },
          "indices": 2,
          "material": 0,
          "mode": 4
        }
      ]
    }
  ],
  "nodes": [
    {
      "children": [
        1
      ],
      "name": "RootNode (gltf orientation matrix)",
      "rotation": [
        -0.70710678118654746,
        -0,
        -0,
        0.70710678118654757
      ]
    },
    {
      "children": [
        2
      ],
      "name": "RootNode (model correction matrix)"
    },
    {
      "children": [
        3
      ],
      "name": "1TIM.obj.cleaner.materialmerger.gles"
    },
    {
      "mesh": 0,
      "name": ""
    }
  ],
  "scene": 0,
  "scenes": [
    {
      "name": "OSG_Scene",
      "nodes": [
        0
      ]
    }
  ]
}

